<mxfile host="Electron" modified="2024-08-24T09:44:23.026Z" agent="Mozilla/5.0 (Macintosh; Intel Mac OS X 10_15_7) AppleWebKit/537.36 (KHTML, like Gecko) draw.io/24.6.4 Chrome/124.0.6367.207 Electron/30.0.6 Safari/537.36" etag="czuA7z_MGBTqxQ5SoGtO" version="24.6.4" type="device">
  <diagram name="Page-1" id="ND3paqoBhJWKzw9pHB97">
    <mxGraphModel dx="1583" dy="2029" grid="1" gridSize="10" guides="1" tooltips="1" connect="1" arrows="1" fold="1" page="1" pageScale="1" pageWidth="850" pageHeight="1100" math="0" shadow="0">
      <root>
        <mxCell id="0" />
        <mxCell id="1" parent="0" />
        <mxCell id="HTKny5PETwqF1vjj6KgN-3" value="" style="aspect=fixed;sketch=0;html=1;dashed=0;whitespace=wrap;verticalLabelPosition=bottom;verticalAlign=top;fillColor=#2875E2;strokeColor=#ffffff;points=[[0.005,0.63,0],[0.1,0.2,0],[0.9,0.2,0],[0.5,0,0],[0.995,0.63,0],[0.72,0.99,0],[0.5,1,0],[0.28,0.99,0]];shape=mxgraph.kubernetes.icon2;prIcon=user" vertex="1" parent="1">
          <mxGeometry x="30" y="350" width="50" height="48" as="geometry" />
        </mxCell>
        <mxCell id="HTKny5PETwqF1vjj6KgN-45" style="edgeStyle=orthogonalEdgeStyle;rounded=0;orthogonalLoop=1;jettySize=auto;html=1;" edge="1" parent="1" source="HTKny5PETwqF1vjj6KgN-4" target="HTKny5PETwqF1vjj6KgN-24">
          <mxGeometry relative="1" as="geometry" />
        </mxCell>
        <mxCell id="HTKny5PETwqF1vjj6KgN-4" value="Cloudfront" style="sketch=0;points=[[0,0,0],[0.25,0,0],[0.5,0,0],[0.75,0,0],[1,0,0],[0,1,0],[0.25,1,0],[0.5,1,0],[0.75,1,0],[1,1,0],[0,0.25,0],[0,0.5,0],[0,0.75,0],[1,0.25,0],[1,0.5,0],[1,0.75,0]];outlineConnect=0;fontColor=#232F3E;fillColor=#8C4FFF;strokeColor=#ffffff;dashed=0;verticalLabelPosition=bottom;verticalAlign=top;align=center;html=1;fontSize=12;fontStyle=0;aspect=fixed;shape=mxgraph.aws4.resourceIcon;resIcon=mxgraph.aws4.cloudfront;" vertex="1" parent="1">
          <mxGeometry x="370" y="335" width="78" height="78" as="geometry" />
        </mxCell>
        <mxCell id="HTKny5PETwqF1vjj6KgN-6" value="Route53" style="sketch=0;points=[[0,0,0],[0.25,0,0],[0.5,0,0],[0.75,0,0],[1,0,0],[0,1,0],[0.25,1,0],[0.5,1,0],[0.75,1,0],[1,1,0],[0,0.25,0],[0,0.5,0],[0,0.75,0],[1,0.25,0],[1,0.5,0],[1,0.75,0]];outlineConnect=0;fontColor=#232F3E;fillColor=#8C4FFF;strokeColor=#ffffff;dashed=0;verticalLabelPosition=bottom;verticalAlign=top;align=center;html=1;fontSize=12;fontStyle=0;aspect=fixed;shape=mxgraph.aws4.resourceIcon;resIcon=mxgraph.aws4.route_53;" vertex="1" parent="1">
          <mxGeometry x="230" y="335" width="78" height="78" as="geometry" />
        </mxCell>
        <mxCell id="HTKny5PETwqF1vjj6KgN-7" style="edgeStyle=orthogonalEdgeStyle;rounded=0;orthogonalLoop=1;jettySize=auto;html=1;entryX=0;entryY=0.5;entryDx=0;entryDy=0;entryPerimeter=0;" edge="1" parent="1" source="HTKny5PETwqF1vjj6KgN-3" target="HTKny5PETwqF1vjj6KgN-6">
          <mxGeometry relative="1" as="geometry" />
        </mxCell>
        <mxCell id="HTKny5PETwqF1vjj6KgN-8" value="technion-stockAI.com" style="edgeLabel;html=1;align=center;verticalAlign=middle;resizable=0;points=[];" vertex="1" connectable="0" parent="HTKny5PETwqF1vjj6KgN-7">
          <mxGeometry x="0.1371" y="-2" relative="1" as="geometry">
            <mxPoint as="offset" />
          </mxGeometry>
        </mxCell>
        <mxCell id="HTKny5PETwqF1vjj6KgN-9" style="edgeStyle=orthogonalEdgeStyle;rounded=0;orthogonalLoop=1;jettySize=auto;html=1;entryX=0;entryY=0.5;entryDx=0;entryDy=0;entryPerimeter=0;" edge="1" parent="1" source="HTKny5PETwqF1vjj6KgN-6" target="HTKny5PETwqF1vjj6KgN-4">
          <mxGeometry relative="1" as="geometry" />
        </mxCell>
        <mxCell id="HTKny5PETwqF1vjj6KgN-10" value="VPC" style="sketch=0;outlineConnect=0;gradientColor=none;html=1;whiteSpace=wrap;fontSize=12;fontStyle=0;shape=mxgraph.aws4.group;grIcon=mxgraph.aws4.group_vpc;strokeColor=#879196;fillColor=none;verticalAlign=top;align=left;spacingLeft=30;fontColor=#879196;dashed=0;" vertex="1" parent="1">
          <mxGeometry x="490" y="120" width="650" height="500" as="geometry" />
        </mxCell>
        <mxCell id="HTKny5PETwqF1vjj6KgN-12" value="ALB" style="outlineConnect=0;dashed=0;verticalLabelPosition=bottom;verticalAlign=top;align=center;html=1;shape=mxgraph.aws3.application_load_balancer;fillColor=#F58534;gradientColor=none;" vertex="1" parent="1">
          <mxGeometry x="520" y="334" width="69" height="72" as="geometry" />
        </mxCell>
        <mxCell id="HTKny5PETwqF1vjj6KgN-18" value="VPC" style="sketch=0;outlineConnect=0;gradientColor=none;html=1;whiteSpace=wrap;fontSize=12;fontStyle=0;shape=mxgraph.aws4.group;grIcon=mxgraph.aws4.group_vpc;strokeColor=#879196;fillColor=none;verticalAlign=top;align=left;spacingLeft=30;fontColor=#879196;dashed=0;" vertex="1" parent="1">
          <mxGeometry x="460" y="-62.75" width="730" height="700" as="geometry" />
        </mxCell>
        <mxCell id="HTKny5PETwqF1vjj6KgN-13" value="webapp - python" style="outlineConnect=0;dashed=0;verticalLabelPosition=bottom;verticalAlign=top;align=center;html=1;shape=mxgraph.aws3.ec2_compute_container;fillColor=#F58534;gradientColor=none;" vertex="1" parent="1">
          <mxGeometry x="685" y="270" width="60" height="34.5" as="geometry" />
        </mxCell>
        <mxCell id="HTKny5PETwqF1vjj6KgN-14" value="" style="outlineConnect=0;dashed=0;verticalLabelPosition=bottom;verticalAlign=top;align=center;html=1;shape=mxgraph.aws3.lambda_function;fillColor=#F58534;gradientColor=none;" vertex="1" parent="1">
          <mxGeometry x="800" y="-27" width="69" height="72" as="geometry" />
        </mxCell>
        <mxCell id="HTKny5PETwqF1vjj6KgN-15" value="EC2" style="outlineConnect=0;dashed=0;verticalLabelPosition=bottom;verticalAlign=top;align=center;html=1;shape=mxgraph.aws3.instance;fillColor=#F58534;gradientColor=none;" vertex="1" parent="1">
          <mxGeometry x="750" y="260" width="60" height="63" as="geometry" />
        </mxCell>
        <mxCell id="HTKny5PETwqF1vjj6KgN-16" value="RDS - Mysql" style="outlineConnect=0;dashed=0;verticalLabelPosition=bottom;verticalAlign=top;align=center;html=1;shape=mxgraph.aws3.rds;fillColor=#2E73B8;gradientColor=none;" vertex="1" parent="1">
          <mxGeometry x="990" y="228" width="72" height="81" as="geometry" />
        </mxCell>
        <mxCell id="HTKny5PETwqF1vjj6KgN-17" value="" style="outlineConnect=0;dashed=0;verticalLabelPosition=bottom;verticalAlign=top;align=center;html=1;shape=mxgraph.aws3.virtual_private_cloud;fillColor=#F58534;gradientColor=none;" vertex="1" parent="1">
          <mxGeometry x="470" y="100" width="79.5" height="54" as="geometry" />
        </mxCell>
        <mxCell id="HTKny5PETwqF1vjj6KgN-19" value="" style="outlineConnect=0;dashed=0;verticalLabelPosition=bottom;verticalAlign=top;align=center;html=1;shape=mxgraph.aws3.cloud_2;fillColor=#F58534;gradientColor=none;" vertex="1" parent="1">
          <mxGeometry x="448" y="-75" width="75" height="75" as="geometry" />
        </mxCell>
        <mxCell id="HTKny5PETwqF1vjj6KgN-20" value="" style="sketch=0;points=[[0,0,0],[0.25,0,0],[0.5,0,0],[0.75,0,0],[1,0,0],[0,1,0],[0.25,1,0],[0.5,1,0],[0.75,1,0],[1,1,0],[0,0.25,0],[0,0.5,0],[0,0.75,0],[1,0.25,0],[1,0.5,0],[1,0.75,0]];outlineConnect=0;fontColor=#232F3E;fillColor=#7AA116;strokeColor=#ffffff;dashed=0;verticalLabelPosition=bottom;verticalAlign=top;align=center;html=1;fontSize=12;fontStyle=0;aspect=fixed;shape=mxgraph.aws4.resourceIcon;resIcon=mxgraph.aws4.s3;" vertex="1" parent="1">
          <mxGeometry x="589" y="-30" width="78" height="78" as="geometry" />
        </mxCell>
        <mxCell id="HTKny5PETwqF1vjj6KgN-21" value="" style="sketch=0;outlineConnect=0;fontColor=#232F3E;gradientColor=none;fillColor=#8C4FFF;strokeColor=none;dashed=0;verticalLabelPosition=bottom;verticalAlign=top;align=center;html=1;fontSize=12;fontStyle=0;aspect=fixed;pointerEvents=1;shape=mxgraph.aws4.endpoint;" vertex="1" parent="1">
          <mxGeometry x="604" y="40" width="48" height="48" as="geometry" />
        </mxCell>
        <mxCell id="HTKny5PETwqF1vjj6KgN-24" value="Public Subnet" style="sketch=0;outlineConnect=0;gradientColor=none;html=1;whiteSpace=wrap;fontSize=12;fontStyle=0;shape=mxgraph.aws4.group;grIcon=mxgraph.aws4.group_subnet;strokeColor=#879196;fillColor=none;verticalAlign=top;align=left;spacingLeft=30;fontColor=#879196;dashed=0;" vertex="1" parent="1">
          <mxGeometry x="500" y="309" width="130" height="130" as="geometry" />
        </mxCell>
        <mxCell id="HTKny5PETwqF1vjj6KgN-41" style="edgeStyle=orthogonalEdgeStyle;rounded=0;orthogonalLoop=1;jettySize=auto;html=1;" edge="1" parent="1" source="HTKny5PETwqF1vjj6KgN-25" target="HTKny5PETwqF1vjj6KgN-39">
          <mxGeometry relative="1" as="geometry">
            <Array as="points">
              <mxPoint x="850" y="50" />
            </Array>
          </mxGeometry>
        </mxCell>
        <mxCell id="HTKny5PETwqF1vjj6KgN-42" value="User Email" style="edgeLabel;html=1;align=center;verticalAlign=middle;resizable=0;points=[];" vertex="1" connectable="0" parent="HTKny5PETwqF1vjj6KgN-41">
          <mxGeometry x="-0.7864" y="-1" relative="1" as="geometry">
            <mxPoint x="-1" y="-15" as="offset" />
          </mxGeometry>
        </mxCell>
        <mxCell id="HTKny5PETwqF1vjj6KgN-25" value="Private Subnet AZ1 - UI" style="sketch=0;outlineConnect=0;gradientColor=none;html=1;whiteSpace=wrap;fontSize=12;fontStyle=0;shape=mxgraph.aws4.group;grIcon=mxgraph.aws4.group_subnet;strokeColor=#879196;fillColor=none;verticalAlign=top;align=left;spacingLeft=30;fontColor=#879196;dashed=0;" vertex="1" parent="1">
          <mxGeometry x="652" y="206.5" width="240" height="170" as="geometry" />
        </mxCell>
        <mxCell id="HTKny5PETwqF1vjj6KgN-26" value="Private Subnet AZ2 - UI" style="sketch=0;outlineConnect=0;gradientColor=none;html=1;whiteSpace=wrap;fontSize=12;fontStyle=0;shape=mxgraph.aws4.group;grIcon=mxgraph.aws4.group_subnet;strokeColor=#879196;fillColor=none;verticalAlign=top;align=left;spacingLeft=30;fontColor=#879196;dashed=0;" vertex="1" parent="1">
          <mxGeometry x="650" y="406" width="240" height="170" as="geometry" />
        </mxCell>
        <mxCell id="HTKny5PETwqF1vjj6KgN-28" style="edgeStyle=orthogonalEdgeStyle;rounded=0;orthogonalLoop=1;jettySize=auto;html=1;" edge="1" parent="1" source="HTKny5PETwqF1vjj6KgN-27" target="HTKny5PETwqF1vjj6KgN-21">
          <mxGeometry relative="1" as="geometry">
            <Array as="points">
              <mxPoint x="654" y="134" />
              <mxPoint x="630" y="134" />
            </Array>
          </mxGeometry>
        </mxCell>
        <mxCell id="HTKny5PETwqF1vjj6KgN-27" value="" style="sketch=0;outlineConnect=0;fontColor=#232F3E;gradientColor=none;fillColor=#8C4FFF;strokeColor=none;dashed=0;verticalLabelPosition=bottom;verticalAlign=top;align=center;html=1;fontSize=12;fontStyle=0;aspect=fixed;pointerEvents=1;shape=mxgraph.aws4.endpoint;" vertex="1" parent="1">
          <mxGeometry x="630" y="180" width="48" height="48" as="geometry" />
        </mxCell>
        <mxCell id="HTKny5PETwqF1vjj6KgN-29" value="EC2" style="outlineConnect=0;dashed=0;verticalLabelPosition=bottom;verticalAlign=top;align=center;html=1;shape=mxgraph.aws3.instance;fillColor=#F58534;gradientColor=none;" vertex="1" parent="1">
          <mxGeometry x="760" y="470" width="60" height="63" as="geometry" />
        </mxCell>
        <mxCell id="HTKny5PETwqF1vjj6KgN-30" value="webapp - python" style="outlineConnect=0;dashed=0;verticalLabelPosition=bottom;verticalAlign=top;align=center;html=1;shape=mxgraph.aws3.ec2_compute_container;fillColor=#F58534;gradientColor=none;" vertex="1" parent="1">
          <mxGeometry x="685" y="484.25" width="60" height="34.5" as="geometry" />
        </mxCell>
        <mxCell id="HTKny5PETwqF1vjj6KgN-32" value="Private Subnet AZ1 - Monitoring" style="sketch=0;outlineConnect=0;gradientColor=none;html=1;whiteSpace=wrap;fontSize=12;fontStyle=0;shape=mxgraph.aws4.group;grIcon=mxgraph.aws4.group_subnet;strokeColor=#879196;fillColor=none;verticalAlign=top;align=left;spacingLeft=30;fontColor=#879196;dashed=0;" vertex="1" parent="1">
          <mxGeometry x="906" y="406" width="224" height="170" as="geometry" />
        </mxCell>
        <mxCell id="HTKny5PETwqF1vjj6KgN-33" value="EC2" style="outlineConnect=0;dashed=0;verticalLabelPosition=bottom;verticalAlign=top;align=center;html=1;shape=mxgraph.aws3.instance;fillColor=#F58534;gradientColor=none;" vertex="1" parent="1">
          <mxGeometry x="988" y="439" width="60" height="63" as="geometry" />
        </mxCell>
        <mxCell id="HTKny5PETwqF1vjj6KgN-34" value="" style="image;aspect=fixed;html=1;points=[];align=center;fontSize=12;image=img/lib/azure2/other/Grafana.svg;" vertex="1" parent="1">
          <mxGeometry x="930" y="533" width="46.36" height="36" as="geometry" />
        </mxCell>
        <mxCell id="HTKny5PETwqF1vjj6KgN-35" value="Prometheus | Grafana | Loki" style="text;html=1;align=center;verticalAlign=middle;resizable=0;points=[];autosize=1;strokeColor=none;fillColor=none;" vertex="1" parent="1">
          <mxGeometry x="970" y="536" width="170" height="30" as="geometry" />
        </mxCell>
        <mxCell id="HTKny5PETwqF1vjj6KgN-36" style="edgeStyle=orthogonalEdgeStyle;rounded=0;orthogonalLoop=1;jettySize=auto;html=1;entryX=0.469;entryY=0.987;entryDx=0;entryDy=0;entryPerimeter=0;" edge="1" parent="1" source="HTKny5PETwqF1vjj6KgN-24" target="HTKny5PETwqF1vjj6KgN-34">
          <mxGeometry relative="1" as="geometry">
            <Array as="points">
              <mxPoint x="565" y="600" />
              <mxPoint x="952" y="600" />
            </Array>
          </mxGeometry>
        </mxCell>
        <mxCell id="HTKny5PETwqF1vjj6KgN-37" value="/monitoring/prometheus" style="edgeLabel;html=1;align=center;verticalAlign=middle;resizable=0;points=[];" vertex="1" connectable="0" parent="HTKny5PETwqF1vjj6KgN-36">
          <mxGeometry x="0.1099" y="1" relative="1" as="geometry">
            <mxPoint as="offset" />
          </mxGeometry>
        </mxCell>
        <mxCell id="HTKny5PETwqF1vjj6KgN-38" style="edgeStyle=orthogonalEdgeStyle;rounded=0;orthogonalLoop=1;jettySize=auto;html=1;entryX=0;entryY=0.5;entryDx=0;entryDy=0;entryPerimeter=0;" edge="1" parent="1" source="HTKny5PETwqF1vjj6KgN-20" target="HTKny5PETwqF1vjj6KgN-14">
          <mxGeometry relative="1" as="geometry" />
        </mxCell>
        <mxCell id="HTKny5PETwqF1vjj6KgN-39" value="SES / SNS" style="outlineConnect=0;dashed=0;verticalLabelPosition=bottom;verticalAlign=top;align=center;html=1;shape=mxgraph.aws3.ses;fillColor=#D9A741;gradientColor=none;" vertex="1" parent="1">
          <mxGeometry x="990" y="-37.5" width="79.5" height="93" as="geometry" />
        </mxCell>
        <mxCell id="HTKny5PETwqF1vjj6KgN-40" style="edgeStyle=orthogonalEdgeStyle;rounded=0;orthogonalLoop=1;jettySize=auto;html=1;entryX=0;entryY=0.48;entryDx=0;entryDy=0;entryPerimeter=0;" edge="1" parent="1" source="HTKny5PETwqF1vjj6KgN-14" target="HTKny5PETwqF1vjj6KgN-39">
          <mxGeometry relative="1" as="geometry" />
        </mxCell>
        <mxCell id="HTKny5PETwqF1vjj6KgN-43" style="edgeStyle=orthogonalEdgeStyle;rounded=0;orthogonalLoop=1;jettySize=auto;html=1;entryX=0.5;entryY=0;entryDx=0;entryDy=0;entryPerimeter=0;" edge="1" parent="1" source="HTKny5PETwqF1vjj6KgN-39" target="HTKny5PETwqF1vjj6KgN-3">
          <mxGeometry relative="1" as="geometry">
            <Array as="points">
              <mxPoint x="1030" y="-140" />
              <mxPoint x="55" y="-140" />
            </Array>
          </mxGeometry>
        </mxCell>
        <mxCell id="HTKny5PETwqF1vjj6KgN-44" value="&lt;h1 style=&quot;margin-top: 0px;&quot;&gt;CRON EMAIL&lt;/h1&gt;&lt;div&gt;#!/bin/bash&lt;/div&gt;&lt;div&gt;....&lt;/div&gt;" style="text;html=1;whiteSpace=wrap;overflow=hidden;rounded=0;" vertex="1" parent="1">
          <mxGeometry x="812" y="243.5" width="80" height="106.5" as="geometry" />
        </mxCell>
      </root>
    </mxGraphModel>
  </diagram>
</mxfile>
